<svg xmlns="http://www.w3.org/2000/svg" id="Capa_2" data-name="Capa 2" viewBox="0 0 36 36"><defs><style>.cls-1{fill:#fff;}</style></defs><title>Mesa de trabajo 53</title><path class="cls-1" d="M13.76,34.2a.85.85,0,0,1-.55-1.5L30.57,18,13.21,3.3a.85.85,0,0,1-.1-1.2A.87.87,0,0,1,14.32,2L33.21,18,14.32,34A.89.89,0,0,1,13.76,34.2Z"/><path class="cls-1" d="M13.76,36a2.65,2.65,0,0,1-1.71-4.68L27.79,18,12.05,4.68a2.65,2.65,0,0,1,3.43-4L36,18,15.48,35.37A2.64,2.64,0,0,1,13.76,36Z"/><path class="cls-1" d="M2.12,34.2a.85.85,0,0,1-.85-.85V2.65a.85.85,0,0,1,.85-.85A.86.86,0,0,1,3,2.65v30.7A.86.86,0,0,1,2.12,34.2Z"/><path class="cls-1" d="M2.12,35.1A1.76,1.76,0,0,1,.37,33.35V2.65a1.76,1.76,0,0,1,3.51,0v30.7A1.76,1.76,0,0,1,2.12,35.1Z"/></svg>